<mxfile host="app.diagrams.net" agent="Mozilla/5.0 (Windows NT 10.0; Win64; x64; rv:139.0) Gecko/20100101 Firefox/139.0" version="26.2.14">
  <diagram name="Page-1" id="984_bUSXCW8VmlToqfbf">
    <mxGraphModel dx="2500" dy="867" grid="1" gridSize="10" guides="1" tooltips="1" connect="1" arrows="1" fold="1" page="1" pageScale="1" pageWidth="850" pageHeight="1100" math="0" shadow="0">
      <root>
        <mxCell id="0" />
        <mxCell id="1" parent="0" />
        <mxCell id="8ICVsS1ZmR-CncsZMjtw-74" value="" style="rounded=0;whiteSpace=wrap;html=1;fillColor=none;fontColor=#333333;strokeColor=#666666;dashed=1;dashPattern=12 12;fontSize=13;strokeWidth=2;" vertex="1" parent="1">
          <mxGeometry x="200" y="100" width="570" height="410" as="geometry" />
        </mxCell>
        <mxCell id="8ICVsS1ZmR-CncsZMjtw-7" value="" style="rounded=0;whiteSpace=wrap;html=1;fillColor=none;" vertex="1" parent="1">
          <mxGeometry x="230" y="120" width="290" height="370" as="geometry" />
        </mxCell>
        <mxCell id="8ICVsS1ZmR-CncsZMjtw-1" value="" style="rounded=0;whiteSpace=wrap;html=1;" vertex="1" parent="1">
          <mxGeometry x="240" y="310" width="270" height="170" as="geometry" />
        </mxCell>
        <mxCell id="8ICVsS1ZmR-CncsZMjtw-2" value="" style="rounded=0;whiteSpace=wrap;html=1;fillColor=#f5f5f5;strokeColor=#666666;dashed=1;dashPattern=8 8;fontColor=#333333;" vertex="1" parent="1">
          <mxGeometry x="250" y="320" width="120" height="150" as="geometry" />
        </mxCell>
        <mxCell id="8ICVsS1ZmR-CncsZMjtw-3" value="" style="rounded=0;whiteSpace=wrap;html=1;dashed=1;dashPattern=8 8;fillColor=#f5f5f5;strokeColor=#666666;fontColor=#333333;" vertex="1" parent="1">
          <mxGeometry x="380" y="320" width="120" height="150" as="geometry" />
        </mxCell>
        <mxCell id="8ICVsS1ZmR-CncsZMjtw-5" value="Host" style="text;html=1;align=left;verticalAlign=middle;whiteSpace=wrap;rounded=0;fontStyle=1" vertex="1" parent="1">
          <mxGeometry x="243.00000000000003" y="115" width="60" height="30" as="geometry" />
        </mxCell>
        <mxCell id="8ICVsS1ZmR-CncsZMjtw-6" value="" style="rounded=0;whiteSpace=wrap;html=1;" vertex="1" parent="1">
          <mxGeometry x="240" y="140" width="270" height="170" as="geometry" />
        </mxCell>
        <mxCell id="8ICVsS1ZmR-CncsZMjtw-8" value="Client" style="text;html=1;align=left;verticalAlign=middle;whiteSpace=wrap;rounded=0;fontStyle=1" vertex="1" parent="1">
          <mxGeometry x="243.00000000000003" y="137" width="60" height="30" as="geometry" />
        </mxCell>
        <mxCell id="8ICVsS1ZmR-CncsZMjtw-13" value="" style="rounded=0;whiteSpace=wrap;html=1;" vertex="1" parent="1">
          <mxGeometry x="570" y="280" width="180" height="210" as="geometry" />
        </mxCell>
        <mxCell id="8ICVsS1ZmR-CncsZMjtw-15" value="Auth Tokens" style="shape=cylinder3;whiteSpace=wrap;html=1;boundedLbl=1;backgroundOutline=1;size=4.566035432635601;fillColor=#dae8fc;strokeColor=#6c8ebf;fontStyle=2;fontColor=#FF0000;" vertex="1" parent="1">
          <mxGeometry x="420" y="330" width="70" height="30" as="geometry" />
        </mxCell>
        <mxCell id="8ICVsS1ZmR-CncsZMjtw-16" value="API Secret Keys" style="rounded=1;whiteSpace=wrap;html=1;fillColor=#f8cecc;strokeColor=#b85450;fontStyle=2;fontColor=#FF0000;" vertex="1" parent="1">
          <mxGeometry x="258.48" y="350" width="101.52" height="30" as="geometry" />
        </mxCell>
        <mxCell id="8ICVsS1ZmR-CncsZMjtw-47" style="edgeStyle=orthogonalEdgeStyle;rounded=0;orthogonalLoop=1;jettySize=auto;html=1;entryX=0.5;entryY=1;entryDx=0;entryDy=0;fillColor=#ffe6cc;strokeColor=#d79b00;exitX=0.5;exitY=0.375;exitDx=0;exitDy=0;exitPerimeter=0;" edge="1" parent="1" source="8ICVsS1ZmR-CncsZMjtw-21" target="8ICVsS1ZmR-CncsZMjtw-24">
          <mxGeometry relative="1" as="geometry" />
        </mxCell>
        <mxCell id="8ICVsS1ZmR-CncsZMjtw-48" value="Centre Label&lt;br&gt;Candidates" style="edgeLabel;html=1;align=center;verticalAlign=middle;resizable=0;points=[];fontStyle=2;fontColor=#B3B3B3;" vertex="1" connectable="0" parent="8ICVsS1ZmR-CncsZMjtw-47">
          <mxGeometry x="-0.314" y="1" relative="1" as="geometry">
            <mxPoint as="offset" />
          </mxGeometry>
        </mxCell>
        <mxCell id="8ICVsS1ZmR-CncsZMjtw-21" value="Discogs" style="ellipse;shape=cloud;whiteSpace=wrap;html=1;fillColor=#d5e8d4;strokeColor=#82b366;" vertex="1" parent="1">
          <mxGeometry x="230" y="532.5" width="120" height="80" as="geometry" />
        </mxCell>
        <mxCell id="8ICVsS1ZmR-CncsZMjtw-54" style="edgeStyle=orthogonalEdgeStyle;rounded=0;orthogonalLoop=1;jettySize=auto;html=1;entryX=0.5;entryY=1;entryDx=0;entryDy=0;fillColor=#ffe6cc;strokeColor=#d79b00;" edge="1" parent="1" source="8ICVsS1ZmR-CncsZMjtw-24" target="8ICVsS1ZmR-CncsZMjtw-53">
          <mxGeometry relative="1" as="geometry">
            <Array as="points">
              <mxPoint x="370" y="445" />
              <mxPoint x="370" y="280" />
              <mxPoint x="309" y="280" />
            </Array>
          </mxGeometry>
        </mxCell>
        <mxCell id="8ICVsS1ZmR-CncsZMjtw-24" value="Centre Labels" style="rounded=1;whiteSpace=wrap;html=1;fillColor=#ffe6cc;strokeColor=#d79b00;fontStyle=2;fontColor=#B3B3B3;" vertex="1" parent="1">
          <mxGeometry x="258.48" y="430" width="101.52" height="30" as="geometry" />
        </mxCell>
        <mxCell id="8ICVsS1ZmR-CncsZMjtw-25" value="Most Recent Scan" style="rounded=1;whiteSpace=wrap;html=1;fillColor=#ffe6cc;strokeColor=#d79b00;fontStyle=2;fontColor=#F91FFF;" vertex="1" parent="1">
          <mxGeometry x="258.48" y="390" width="101.52" height="30" as="geometry" />
        </mxCell>
        <mxCell id="8ICVsS1ZmR-CncsZMjtw-26" value="RAM" style="text;html=1;align=left;verticalAlign=middle;whiteSpace=wrap;rounded=0;fontStyle=1" vertex="1" parent="1">
          <mxGeometry x="462.52" y="441" width="30" height="30" as="geometry" />
        </mxCell>
        <mxCell id="8ICVsS1ZmR-CncsZMjtw-27" value="Disk" style="text;html=1;align=left;verticalAlign=middle;whiteSpace=wrap;rounded=0;fontStyle=1" vertex="1" parent="1">
          <mxGeometry x="320" y="320" width="60" height="30" as="geometry" />
        </mxCell>
        <mxCell id="8ICVsS1ZmR-CncsZMjtw-28" value="" style="rounded=0;whiteSpace=wrap;html=1;strokeColor=none;" vertex="1" parent="1">
          <mxGeometry x="242" y="312" width="48" height="28" as="geometry" />
        </mxCell>
        <mxCell id="8ICVsS1ZmR-CncsZMjtw-9" value="Server" style="text;html=1;align=left;verticalAlign=middle;whiteSpace=wrap;rounded=0;fontStyle=1" vertex="1" parent="1">
          <mxGeometry x="240" y="310" width="63" height="30" as="geometry" />
        </mxCell>
        <mxCell id="8ICVsS1ZmR-CncsZMjtw-35" value="" style="rounded=0;whiteSpace=wrap;html=1;fillColor=#d5e8d4;strokeColor=#82b366;" vertex="1" parent="1">
          <mxGeometry x="360" y="550" width="189" height="170" as="geometry" />
        </mxCell>
        <mxCell id="8ICVsS1ZmR-CncsZMjtw-37" value="Spotify" style="ellipse;shape=cloud;whiteSpace=wrap;html=1;fillColor=#d5e8d4;strokeColor=#82b366;fontStyle=1" vertex="1" parent="1">
          <mxGeometry x="360" y="557.5" width="68.52" height="40" as="geometry" />
        </mxCell>
        <mxCell id="8ICVsS1ZmR-CncsZMjtw-46" style="edgeStyle=orthogonalEdgeStyle;rounded=0;orthogonalLoop=1;jettySize=auto;html=1;exitX=0.705;exitY=-0.008;exitDx=0;exitDy=0;entryX=0;entryY=1;entryDx=0;entryDy=0;fillColor=#fff2cc;strokeColor=#d6b656;startArrow=classic;startFill=1;exitPerimeter=0;" edge="1" parent="1" source="8ICVsS1ZmR-CncsZMjtw-39" target="8ICVsS1ZmR-CncsZMjtw-45">
          <mxGeometry relative="1" as="geometry">
            <Array as="points">
              <mxPoint x="430" y="450" />
              <mxPoint x="388" y="450" />
            </Array>
          </mxGeometry>
        </mxCell>
        <mxCell id="8ICVsS1ZmR-CncsZMjtw-39" value="Host&#39;s Playback State" style="rounded=1;whiteSpace=wrap;html=1;fontStyle=2;fontColor=#F91FFF;" vertex="1" parent="1">
          <mxGeometry x="370" y="612.5" width="85" height="45" as="geometry" />
        </mxCell>
        <mxCell id="8ICVsS1ZmR-CncsZMjtw-65" style="edgeStyle=orthogonalEdgeStyle;rounded=0;orthogonalLoop=1;jettySize=auto;html=1;entryX=0.5;entryY=1;entryDx=0;entryDy=0;fillColor=#d5e8d4;strokeColor=#82b366;" edge="1" parent="1" source="8ICVsS1ZmR-CncsZMjtw-40" target="8ICVsS1ZmR-CncsZMjtw-13">
          <mxGeometry relative="1" as="geometry">
            <Array as="points">
              <mxPoint x="413" y="740" />
              <mxPoint x="660" y="740" />
            </Array>
          </mxGeometry>
        </mxCell>
        <mxCell id="8ICVsS1ZmR-CncsZMjtw-40" value="Host&#39;s Profile&lt;br&gt;Picture" style="rounded=1;whiteSpace=wrap;html=1;fontStyle=2;fontColor=#B3B3B3;" vertex="1" parent="1">
          <mxGeometry x="370" y="670" width="85" height="45" as="geometry" />
        </mxCell>
        <mxCell id="8ICVsS1ZmR-CncsZMjtw-64" style="edgeStyle=orthogonalEdgeStyle;rounded=0;orthogonalLoop=1;jettySize=auto;html=1;fillColor=#d5e8d4;strokeColor=#82b366;" edge="1" parent="1" source="8ICVsS1ZmR-CncsZMjtw-41">
          <mxGeometry relative="1" as="geometry">
            <mxPoint x="640" y="490" as="targetPoint" />
            <Array as="points">
              <mxPoint x="640" y="693" />
              <mxPoint x="640" y="490" />
            </Array>
          </mxGeometry>
        </mxCell>
        <mxCell id="8ICVsS1ZmR-CncsZMjtw-41" value="User&#39;s Profile&lt;br&gt;Picture" style="rounded=1;whiteSpace=wrap;html=1;fontStyle=2;fontColor=#B3B3B3;" vertex="1" parent="1">
          <mxGeometry x="460" y="670" width="85" height="45" as="geometry" />
        </mxCell>
        <mxCell id="8ICVsS1ZmR-CncsZMjtw-44" style="edgeStyle=orthogonalEdgeStyle;rounded=0;orthogonalLoop=1;jettySize=auto;html=1;entryX=0.5;entryY=1;entryDx=0;entryDy=0;fillColor=#ffe6cc;strokeColor=#d79b00;" edge="1" parent="1" source="8ICVsS1ZmR-CncsZMjtw-42" target="8ICVsS1ZmR-CncsZMjtw-43">
          <mxGeometry relative="1" as="geometry" />
        </mxCell>
        <mxCell id="8ICVsS1ZmR-CncsZMjtw-42" value="Host Profile" style="rounded=1;whiteSpace=wrap;html=1;fillColor=#ffe6cc;strokeColor=#d79b00;fontStyle=2;fontColor=#B3B3B3;" vertex="1" parent="1">
          <mxGeometry x="460" y="557.5" width="85" height="45" as="geometry" />
        </mxCell>
        <mxCell id="8ICVsS1ZmR-CncsZMjtw-67" style="edgeStyle=orthogonalEdgeStyle;rounded=0;orthogonalLoop=1;jettySize=auto;html=1;exitX=1;exitY=0.5;exitDx=0;exitDy=0;entryX=0.001;entryY=0.74;entryDx=0;entryDy=0;fillColor=#fff2cc;strokeColor=#d6b656;entryPerimeter=0;" edge="1" parent="1" source="8ICVsS1ZmR-CncsZMjtw-43" target="8ICVsS1ZmR-CncsZMjtw-13">
          <mxGeometry relative="1" as="geometry">
            <Array as="points">
              <mxPoint x="570" y="425" />
            </Array>
          </mxGeometry>
        </mxCell>
        <mxCell id="8ICVsS1ZmR-CncsZMjtw-68" value="Host&lt;br&gt;ID" style="edgeLabel;html=1;align=center;verticalAlign=middle;resizable=0;points=[];" vertex="1" connectable="0" parent="8ICVsS1ZmR-CncsZMjtw-67">
          <mxGeometry x="0.3132" relative="1" as="geometry">
            <mxPoint x="-12" as="offset" />
          </mxGeometry>
        </mxCell>
        <mxCell id="8ICVsS1ZmR-CncsZMjtw-43" value="Host ID &amp;amp;&lt;br&gt;Playlist ID" style="rounded=1;whiteSpace=wrap;html=1;fillColor=#fff2cc;strokeColor=#d6b656;fontStyle=0" vertex="1" parent="1">
          <mxGeometry x="395" y="410" width="101.52" height="30" as="geometry" />
        </mxCell>
        <mxCell id="8ICVsS1ZmR-CncsZMjtw-50" style="edgeStyle=orthogonalEdgeStyle;rounded=0;orthogonalLoop=1;jettySize=auto;html=1;exitX=0.25;exitY=0;exitDx=0;exitDy=0;entryX=0.5;entryY=1;entryDx=0;entryDy=0;fillColor=#fff2cc;strokeColor=#d6b656;startArrow=classic;startFill=1;" edge="1" parent="1" source="8ICVsS1ZmR-CncsZMjtw-45" target="8ICVsS1ZmR-CncsZMjtw-49">
          <mxGeometry relative="1" as="geometry">
            <Array as="points">
              <mxPoint x="414" y="300" />
              <mxPoint x="413" y="300" />
              <mxPoint x="413" y="260" />
            </Array>
          </mxGeometry>
        </mxCell>
        <mxCell id="8ICVsS1ZmR-CncsZMjtw-45" value="Playback State" style="rounded=1;whiteSpace=wrap;html=1;fillColor=#fff2cc;strokeColor=#d6b656;fontStyle=2;fontColor=#F91FFF;" vertex="1" parent="1">
          <mxGeometry x="388.48" y="370" width="101.52" height="30" as="geometry" />
        </mxCell>
        <mxCell id="8ICVsS1ZmR-CncsZMjtw-49" value="Playback State" style="rounded=1;whiteSpace=wrap;html=1;fontStyle=0" vertex="1" parent="1">
          <mxGeometry x="361.74" y="230" width="101.52" height="30" as="geometry" />
        </mxCell>
        <mxCell id="8ICVsS1ZmR-CncsZMjtw-53" value="Centre Label" style="rounded=1;whiteSpace=wrap;html=1;fontStyle=0" vertex="1" parent="1">
          <mxGeometry x="258.48" y="230" width="101.52" height="30" as="geometry" />
        </mxCell>
        <mxCell id="8ICVsS1ZmR-CncsZMjtw-55" value="Session Cookie" style="rounded=1;whiteSpace=wrap;html=1;fontStyle=2;fillColor=#ffe6cc;strokeColor=#d79b00;fontColor=#FF0000;" vertex="1" parent="1">
          <mxGeometry x="580" y="315" width="101.52" height="30" as="geometry" />
        </mxCell>
        <mxCell id="8ICVsS1ZmR-CncsZMjtw-56" value="Auth Token" style="rounded=1;whiteSpace=wrap;html=1;fontStyle=2;fillColor=#ffe6cc;strokeColor=#d79b00;fontColor=#FF0000;" vertex="1" parent="1">
          <mxGeometry x="580" y="345" width="101.52" height="30" as="geometry" />
        </mxCell>
        <mxCell id="8ICVsS1ZmR-CncsZMjtw-58" value="Session Cookie" style="rounded=1;whiteSpace=wrap;html=1;fontStyle=2;fillColor=#ffe6cc;strokeColor=#d79b00;fontColor=#FF0000;" vertex="1" parent="1">
          <mxGeometry x="403.74" y="150" width="101.52" height="30" as="geometry" />
        </mxCell>
        <mxCell id="8ICVsS1ZmR-CncsZMjtw-59" value="Auth Token" style="rounded=1;whiteSpace=wrap;html=1;fontStyle=2;fillColor=#ffe6cc;strokeColor=#d79b00;fontColor=#FF0000;" vertex="1" parent="1">
          <mxGeometry x="403.74" y="180" width="101.52" height="30" as="geometry" />
        </mxCell>
        <mxCell id="8ICVsS1ZmR-CncsZMjtw-71" style="edgeStyle=orthogonalEdgeStyle;rounded=0;orthogonalLoop=1;jettySize=auto;html=1;exitX=0.75;exitY=1;exitDx=0;exitDy=0;entryX=0;entryY=0.5;entryDx=0;entryDy=0;startArrow=classic;startFill=1;fillColor=#d5e8d4;strokeColor=#82b366;" edge="1" parent="1" source="8ICVsS1ZmR-CncsZMjtw-61" target="8ICVsS1ZmR-CncsZMjtw-39">
          <mxGeometry relative="1" as="geometry" />
        </mxCell>
        <mxCell id="8ICVsS1ZmR-CncsZMjtw-61" value="" style="rounded=0;whiteSpace=wrap;html=1;" vertex="1" parent="1">
          <mxGeometry y="450" width="180" height="50" as="geometry" />
        </mxCell>
        <mxCell id="8ICVsS1ZmR-CncsZMjtw-62" style="edgeStyle=orthogonalEdgeStyle;rounded=0;orthogonalLoop=1;jettySize=auto;html=1;exitX=0;exitY=1;exitDx=0;exitDy=0;entryX=1;entryY=0.5;entryDx=0;entryDy=0;entryPerimeter=0;fillColor=#dae8fc;strokeColor=#6c8ebf;startArrow=classic;startFill=1;" edge="1" parent="1" source="8ICVsS1ZmR-CncsZMjtw-55" target="8ICVsS1ZmR-CncsZMjtw-15">
          <mxGeometry relative="1" as="geometry">
            <Array as="points">
              <mxPoint x="560" y="345" />
              <mxPoint x="560" y="345" />
            </Array>
          </mxGeometry>
        </mxCell>
        <mxCell id="8ICVsS1ZmR-CncsZMjtw-63" style="edgeStyle=orthogonalEdgeStyle;rounded=0;orthogonalLoop=1;jettySize=auto;html=1;exitX=0.75;exitY=1;exitDx=0;exitDy=0;entryX=0.855;entryY=0;entryDx=0;entryDy=1.3241502754643244;entryPerimeter=0;fillColor=#dae8fc;strokeColor=#6c8ebf;startArrow=classic;startFill=1;" edge="1" parent="1" source="8ICVsS1ZmR-CncsZMjtw-59" target="8ICVsS1ZmR-CncsZMjtw-15">
          <mxGeometry relative="1" as="geometry" />
        </mxCell>
        <mxCell id="8ICVsS1ZmR-CncsZMjtw-70" style="edgeStyle=orthogonalEdgeStyle;rounded=0;orthogonalLoop=1;jettySize=auto;html=1;entryX=0;entryY=0.778;entryDx=0;entryDy=0;entryPerimeter=0;fillColor=#d5e8d4;strokeColor=#82b366;" edge="1" parent="1" source="8ICVsS1ZmR-CncsZMjtw-40" target="8ICVsS1ZmR-CncsZMjtw-6">
          <mxGeometry relative="1" as="geometry">
            <Array as="points">
              <mxPoint x="210" y="693" />
              <mxPoint x="210" y="272" />
            </Array>
          </mxGeometry>
        </mxCell>
        <mxCell id="8ICVsS1ZmR-CncsZMjtw-72" value="&lt;div&gt;External Device&lt;/div&gt;&lt;span style=&quot;font-weight: normal;&quot;&gt;&lt;i&gt;(user on Spotify.com)&lt;/i&gt;&lt;/span&gt;" style="text;html=1;align=left;verticalAlign=middle;whiteSpace=wrap;rounded=0;fontStyle=1" vertex="1" parent="1">
          <mxGeometry x="4" y="460" width="146" height="30" as="geometry" />
        </mxCell>
        <mxCell id="8ICVsS1ZmR-CncsZMjtw-86" style="edgeStyle=orthogonalEdgeStyle;rounded=0;orthogonalLoop=1;jettySize=auto;html=1;exitX=0.25;exitY=0;exitDx=0;exitDy=0;fillColor=#ffe6cc;strokeColor=#d79b00;entryX=-0.001;entryY=0.689;entryDx=0;entryDy=0;entryPerimeter=0;" edge="1" parent="1" source="8ICVsS1ZmR-CncsZMjtw-73" target="8ICVsS1ZmR-CncsZMjtw-25">
          <mxGeometry relative="1" as="geometry">
            <mxPoint x="220" y="400" as="targetPoint" />
            <Array as="points">
              <mxPoint x="599" y="110" />
              <mxPoint x="190" y="110" />
              <mxPoint x="190" y="410" />
              <mxPoint x="258" y="410" />
            </Array>
          </mxGeometry>
        </mxCell>
        <mxCell id="8ICVsS1ZmR-CncsZMjtw-87" value="Photo or Image" style="edgeLabel;html=1;align=center;verticalAlign=middle;resizable=0;points=[];fontStyle=2;fontColor=#F91FFF;" vertex="1" connectable="0" parent="8ICVsS1ZmR-CncsZMjtw-86">
          <mxGeometry x="-0.9421" y="1" relative="1" as="geometry">
            <mxPoint as="offset" />
          </mxGeometry>
        </mxCell>
        <mxCell id="8ICVsS1ZmR-CncsZMjtw-73" value="Remote Device" style="text;html=1;align=left;verticalAlign=middle;whiteSpace=wrap;rounded=0;fontStyle=1" vertex="1" parent="1">
          <mxGeometry x="574" y="280" width="96" height="30" as="geometry" />
        </mxCell>
        <mxCell id="8ICVsS1ZmR-CncsZMjtw-75" value="LAN" style="text;html=1;align=right;verticalAlign=middle;whiteSpace=wrap;rounded=0;fontStyle=1;fontColor=#909090;" vertex="1" parent="1">
          <mxGeometry x="660" y="107" width="96" height="30" as="geometry" />
        </mxCell>
        <mxCell id="8ICVsS1ZmR-CncsZMjtw-76" value="&lt;div align=&quot;left&quot;&gt;&lt;br&gt;&lt;/div&gt;" style="rounded=0;whiteSpace=wrap;html=1;sketch=1;curveFitting=1;jiggle=2;" vertex="1" parent="1">
          <mxGeometry y="100" width="180" height="110" as="geometry" />
        </mxCell>
        <mxCell id="8ICVsS1ZmR-CncsZMjtw-78" value="Legend" style="text;html=1;align=left;verticalAlign=middle;whiteSpace=wrap;rounded=0;fontStyle=3" vertex="1" parent="1">
          <mxGeometry x="4" y="98" width="96" height="30" as="geometry" />
        </mxCell>
        <mxCell id="8ICVsS1ZmR-CncsZMjtw-79" value="&lt;ul&gt;&lt;li&gt;&lt;span style=&quot;color: rgb(184, 84, 80);&quot;&gt;Never Shared&lt;/span&gt;&lt;/li&gt;&lt;li&gt;&lt;span style=&quot;color: rgb(255, 179, 102);&quot;&gt;Only Sent to Host&lt;/span&gt;&lt;/li&gt;&lt;li&gt;&lt;span style=&quot;color: rgb(255, 217, 102);&quot;&gt;Sent to Non-Host Devices&lt;/span&gt;&lt;/li&gt;&lt;li&gt;&lt;span style=&quot;color: rgb(126, 166, 224);&quot;&gt;Protected by Cookies&lt;/span&gt;&lt;/li&gt;&lt;li&gt;&lt;span style=&quot;color: rgb(151, 208, 119);&quot;&gt;Third-Party Service&lt;/span&gt;&lt;/li&gt;&lt;/ul&gt;" style="text;strokeColor=none;fillColor=none;html=1;whiteSpace=wrap;verticalAlign=middle;overflow=hidden;" vertex="1" parent="1">
          <mxGeometry x="-20" y="107" width="180" height="110" as="geometry" />
        </mxCell>
        <mxCell id="8ICVsS1ZmR-CncsZMjtw-80" style="edgeStyle=orthogonalEdgeStyle;rounded=0;orthogonalLoop=1;jettySize=auto;html=1;entryX=0.003;entryY=0.58;entryDx=0;entryDy=0;entryPerimeter=0;fillColor=#fff2cc;strokeColor=#d6b656;startArrow=classic;startFill=1;" edge="1" parent="1" source="8ICVsS1ZmR-CncsZMjtw-45" target="8ICVsS1ZmR-CncsZMjtw-13">
          <mxGeometry relative="1" as="geometry">
            <Array as="points">
              <mxPoint x="571" y="385" />
            </Array>
          </mxGeometry>
        </mxCell>
        <mxCell id="8ICVsS1ZmR-CncsZMjtw-81" style="edgeStyle=orthogonalEdgeStyle;rounded=0;orthogonalLoop=1;jettySize=auto;html=1;exitX=0;exitY=0.5;exitDx=0;exitDy=0;entryX=-0.001;entryY=0.872;entryDx=0;entryDy=0;entryPerimeter=0;fillColor=#ffe6cc;strokeColor=#d79b00;" edge="1" parent="1" source="8ICVsS1ZmR-CncsZMjtw-25" target="8ICVsS1ZmR-CncsZMjtw-6">
          <mxGeometry relative="1" as="geometry">
            <Array as="points">
              <mxPoint x="259" y="400" />
              <mxPoint x="220" y="400" />
              <mxPoint x="220" y="288" />
            </Array>
          </mxGeometry>
        </mxCell>
        <mxCell id="8ICVsS1ZmR-CncsZMjtw-84" style="edgeStyle=orthogonalEdgeStyle;rounded=0;orthogonalLoop=1;jettySize=auto;html=1;fillColor=#d5e8d4;strokeColor=#82b366;" edge="1" parent="1" source="8ICVsS1ZmR-CncsZMjtw-82">
          <mxGeometry relative="1" as="geometry">
            <mxPoint x="620" y="490" as="targetPoint" />
            <Array as="points">
              <mxPoint x="620" y="635" />
              <mxPoint x="620" y="490" />
            </Array>
          </mxGeometry>
        </mxCell>
        <mxCell id="8ICVsS1ZmR-CncsZMjtw-95" value="API Fetch" style="edgeLabel;html=1;align=center;verticalAlign=middle;resizable=0;points=[];" vertex="1" connectable="0" parent="8ICVsS1ZmR-CncsZMjtw-84">
          <mxGeometry x="-0.6411" relative="1" as="geometry">
            <mxPoint as="offset" />
          </mxGeometry>
        </mxCell>
        <mxCell id="8ICVsS1ZmR-CncsZMjtw-82" value="Metadata" style="rounded=1;whiteSpace=wrap;html=1;fontStyle=2;fontColor=#B3B3B3;" vertex="1" parent="1">
          <mxGeometry x="460" y="612.5" width="85" height="45" as="geometry" />
        </mxCell>
        <mxCell id="8ICVsS1ZmR-CncsZMjtw-85" style="edgeStyle=orthogonalEdgeStyle;rounded=0;orthogonalLoop=1;jettySize=auto;html=1;exitX=1;exitY=0.25;exitDx=0;exitDy=0;entryX=0.998;entryY=0.846;entryDx=0;entryDy=0;entryPerimeter=0;fillColor=#d5e8d4;strokeColor=#82b366;" edge="1" parent="1" source="8ICVsS1ZmR-CncsZMjtw-82" target="8ICVsS1ZmR-CncsZMjtw-6">
          <mxGeometry relative="1" as="geometry">
            <Array as="points">
              <mxPoint x="560" y="624" />
              <mxPoint x="560" y="284" />
            </Array>
          </mxGeometry>
        </mxCell>
        <mxCell id="8ICVsS1ZmR-CncsZMjtw-88" value="&lt;div align=&quot;left&quot;&gt;&lt;br&gt;&lt;/div&gt;" style="rounded=0;whiteSpace=wrap;html=1;sketch=1;curveFitting=1;jiggle=2;" vertex="1" parent="1">
          <mxGeometry y="210" width="180" height="60" as="geometry" />
        </mxCell>
        <mxCell id="8ICVsS1ZmR-CncsZMjtw-89" value="&lt;ul&gt;&lt;li&gt;&lt;span style=&quot;color: rgb(255, 0, 0);&quot;&gt;&lt;i&gt;Critical&lt;/i&gt;&lt;/span&gt;&lt;/li&gt;&lt;li&gt;&lt;i&gt;&lt;span style=&quot;color: rgb(249, 31, 255);&quot;&gt;Important&lt;/span&gt;&lt;/i&gt;&lt;/li&gt;&lt;li&gt;&lt;span style=&quot;color: rgb(179, 179, 179);&quot;&gt;&lt;i&gt;Public&lt;/i&gt;&lt;/span&gt;&lt;/li&gt;&lt;/ul&gt;" style="text;strokeColor=none;fillColor=none;html=1;whiteSpace=wrap;verticalAlign=middle;overflow=hidden;" vertex="1" parent="1">
          <mxGeometry x="-20" y="189" width="180" height="100" as="geometry" />
        </mxCell>
        <mxCell id="8ICVsS1ZmR-CncsZMjtw-93" style="edgeStyle=orthogonalEdgeStyle;rounded=0;orthogonalLoop=1;jettySize=auto;html=1;exitX=1;exitY=0.5;exitDx=0;exitDy=0;entryX=0.105;entryY=0.996;entryDx=0;entryDy=0;entryPerimeter=0;fillColor=#d5e8d4;strokeColor=#82b366;startArrow=classic;startFill=0;endArrow=none;" edge="1" parent="1" source="8ICVsS1ZmR-CncsZMjtw-56" target="8ICVsS1ZmR-CncsZMjtw-35">
          <mxGeometry relative="1" as="geometry">
            <Array as="points">
              <mxPoint x="702" y="360" />
              <mxPoint x="702" y="750" />
              <mxPoint x="380" y="750" />
            </Array>
          </mxGeometry>
        </mxCell>
        <mxCell id="8ICVsS1ZmR-CncsZMjtw-94" value="&lt;div&gt;Auth Token&lt;/div&gt;" style="edgeLabel;html=1;align=center;verticalAlign=middle;resizable=0;points=[];fontStyle=2;fontColor=#FF0000;" vertex="1" connectable="0" parent="8ICVsS1ZmR-CncsZMjtw-93">
          <mxGeometry x="-0.3419" relative="1" as="geometry">
            <mxPoint as="offset" />
          </mxGeometry>
        </mxCell>
      </root>
    </mxGraphModel>
  </diagram>
</mxfile>
